# xmcd CD database file
#
# Track frame offsets:
#	150
#	16248
#	35563
#	56733
#	72120
#	91557
#	106421
#	127158
#	140498
#	158565
#	180987
#	199786
#	214714
#	231461
#	251399
#
# Disc length: 3686 seconds
#
# Revision: 0
# Processed by: cddbd v1.5.2PL0 Copyright (c) Steve Scherf et al.
# Submitted via: CDex 1.51
#
DISCID=c90e640f
DTITLE=Aimee Mann - KCRW Morning Becomes Eclectic 2002 - 2005
DYEAR=2005
DGENRE=Blues
TTITLE0=Aimee Mann - The Moth
TTITLE1=Aimee Mann - Humpty Dumpty
TTITLE2=Aimee Mann - Save Me
TTITLE3=Aimee Mann - Lost In Space
TTITLE4=Aimee Mann - Calling It Quits
TTITLE5=Aimee Mann - Wise Up
TTITLE6=Aimee Mann - Pavlov's Bell
TTITLE7=Aimee Mann - Going Through The Motions
TTITLE8=Aimee Mann - Goodbye Caroline
TTITLE9=Aimee Mann - She Really Wants You
TTITLE10=Aimee Mann - Little Bombs
TTITLE11=Aimee Mann - Dear John
TTITLE12=Aimee Mann - Video
TTITLE13=Aimee Mann - Head Around It
TTITLE14=Aimee Mann - King Of The Jailhouse
EXTD=YEAR: 2005
EXTT0=
EXTT1=
EXTT2=
EXTT3=
EXTT4=
EXTT5=
EXTT6=
EXTT7=
EXTT8=
EXTT9=
EXTT10=
EXTT11=
EXTT12=
EXTT13=
EXTT14=
PLAYORDER=
